name analog
datacolumns 19
datarows 51
range 0.0 0.025
endheader
time	ground_force_vx	ground_force_vy	ground_force_vz	ground_force_px	ground_force_py	ground_force_pz	l_ground_force_vx	l_ground_force_vy	l_ground_force_vz	l_ground_force_px	l_ground_force_py	l_ground_force_pz	ground_torque_x	ground_torque_y	ground_torque_z	l_ground_torque_x	l_ground_torque_y	l_ground_torque_z
0.0	-0.0	-0.0	-0.0	3.854423999786377	15.42873764038086	-317.29058837890625	-3.8936727046966553	-17.800457000732422	-307.8671264648437	-0.0	-0.0	-0.0	-0.0	-0.0	-0.0	109690.875	7393.80224609375	-4061.631591796875
0.0005	-0.0	-0.0	-0.0	4.103683471679688	15.250421524047852	-316.3407592773437	-4.150312423706055	-18.165752410888672	-308.3009033203125	-0.0	-0.0	-0.0	-0.0	-0.0	-0.0	109755.9453125	7242.94677734375	-4035.489990234375
0.001	-0.0	-0.0	-0.0	3.881342887878418	15.614550590515137	-314.33013916015625	-4.090170860290527	-18.26372337341309	-307.01617431640625	-0.0	-0.0	-0.0	-0.0	-0.0	-0.0	109847.625	7245.89892578125	-4243.1689453125
0.0015	-0.0	-0.0	-0.0	3.8280224800109854	15.20525074005127	-313.37774658203125	-4.109006404876709	-18.04581069946289	-308.72430419921875	-0.0	-0.0	-0.0	-0.0	-0.0	-0.0	109888.6796875	7477.955078125	-4104.298828125
0.002	-0.0	-0.0	-0.0	3.4437038898468018	15.170053482055664	-314.61248779296875	-4.197511196136475	-18.143253326416016	-309.27459716796875	-0.0	-0.0	-0.0	-0.0	-0.0	-0.0	110248.6796875	7292.49609375	-4130.89501953125
0.0025	-0.0	-0.0	-0.0	4.103683471679688	14.742121696472168	-314.40069580078125	-4.365481853485107	-18.078088760375977	-310.46923828125	-0.0	-0.0	-0.0	-0.0	-0.0	-0.0	109964.5859375	7654.021484375	-4237.17919921875
0.003	-0.0	-0.0	-0.0	4.122066020965576	15.16101360321045	-313.4134826660156	-4.356099605560303	-18.4130802154541	-310.1925964355469	-0.0	-0.0	-0.0	-0.0	-0.0	-0.0	110535.5859375	7244.0263671875	-4235.5693359375
0.0035	-0.0	-0.0	-0.0	3.433902740478516	15.321656227111816	-314.61383056640625	-4.25811767578125	-18.343435287475582	-310.359619140625	-0.0	-0.0	-0.0	-0.0	-0.0	-0.0	110486.5859375	7237.2802734375	-4190.3173828125
0.004	-0.0	-0.0	-0.0	3.585904121398926	14.91097927093506	-315.285888671875	-4.163137912750244	-18.23074722290039	-310.0105895996094	-0.0	-0.0	-0.0	-0.0	-0.0	-0.0	110295.71875	7358.7626953125	-4229.07470703125
0.0045000000000000005	-0.0	-0.0	-0.0	3.764213562011719	15.28703784942627	-313.623779296875	-4.24901294708252	-18.52035903930664	-311.1207275390625	-0.0	-0.0	-0.0	-0.0	-0.0	-0.0	110292.15625	7446.72265625	-4143.20556640625
0.005	-0.0	-0.0	-0.0	3.7093098163604736	15.474267959594728	-313.9769897460937	-4.364892959594727	-18.69721984863281	-311.2299499511719	-0.0	-0.0	-0.0	-0.0	-0.0	-0.0	110533.78125	7156.603515625	-4261.8916015625
0.0055	-0.0	-0.0	-0.0	3.95444655418396	15.287591934204102	-314.01092529296875	-4.49726676940918	-18.688377380371094	-310.36041259765625	-0.0	-0.0	-0.0	-0.0	-0.0	-0.0	110683.78125	7177.54638671875	-4374.16162109375
0.006	-0.0	-0.0	-0.0	4.103683471679688	15.27945041656494	-313.90966796875	-4.187254428863525	-18.52090072631836	-309.0694580078125	-0.0	-0.0	-0.0	-0.0	-0.0	-0.0	110601.15625	7525.7001953125	-4211.02392578125
0.006500000000000001	-0.0	-0.0	-0.0	3.729946613311768	15.3858003616333	-313.87664794921875	-4.25811767578125	-18.30907440185547	-310.3260192871094	-0.0	-0.0	-0.0	-0.0	-0.0	-0.0	110240.640625	7225.4248046875	-4101.31640625
0.007	-0.0	-0.0	-0.0	3.713203430175781	14.935189247131348	-312.077880859375	-4.169406890869141	-18.521181106567383	-310.046630859375	-0.0	-0.0	-0.0	-0.0	-0.0	-0.0	109981.4765625	7451.392578125	-4050.836669921875
0.0075	-0.0	-0.0	-0.0	3.696821451187134	14.99056625366211	-311.4485778808594	-4.320556640625	-18.47666931152344	-310.08111572265625	-0.0	-0.0	-0.0	-0.0	-0.0	-0.0	110163.9921875	7367.0390625	-4136.923828125
0.008	-0.0	-0.0	-0.0	3.7136499881744394	15.322138786315918	-314.1658935546875	-4.160688400268555	-18.325990676879883	-309.6288757324219	-0.0	-0.0	-0.0	-0.0	-0.0	-0.0	110419.4375	7329.92529296875	-4023.9208984375
0.0085	-0.0	-0.0	-0.0	3.657630920410156	15.39480209350586	-310.9618530273437	-4.409496307373047	-18.362268447875977	-308.7525329589844	-0.0	-0.0	-0.0	-0.0	-0.0	-0.0	109925.0078125	7374.2158203125	-4169.47412109375
0.009000000000000001	-0.0	-0.0	-0.0	4.151958465576172	15.32224941253662	-312.85260009765625	-3.831780910491944	-18.37948226928711	-309.4942321777344	-0.0	-0.0	-0.0	-0.0	-0.0	-0.0	110066.6796875	7586.70068359375	-4329.70751953125
0.0095	-0.0	-0.0	-0.0	3.762871503829956	15.135920524597168	-313.1418762207031	-4.152300834655762	-18.09742927551269	-306.5426330566406	-0.0	-0.0	-0.0	-0.0	-0.0	-0.0	109848.7734375	7515.77392578125	-4130.85107421875
0.01	-0.0	-0.0	-0.0	3.641510963439941	15.176326751708984	-312.1472473144531	-4.23267126083374	-18.44234275817871	-308.1005859375	-0.0	-0.0	-0.0	-0.0	-0.0	-0.0	110129.3359375	7428.8466796875	-4174.841796875
0.0105	-0.0	-0.0	-0.0	3.389999389648437	15.128179550170898	-312.17938232421875	-4.00883674621582	-18.21943473815918	-308.1175231933594	-0.0	-0.0	-0.0	-0.0	-0.0	-0.0	109991.5078125	7557.42431640625	-4303.1298828125
0.011	-0.0	-0.0	-0.0	3.649665594100952	15.508689880371094	-313.9769897460937	-4.460703372955322	-18.21096992492676	-307.8006896972656	-0.0	-0.0	-0.0	-0.0	-0.0	-0.0	109613.5703125	7684.7734375	-4260.9755859375
0.0115	-0.0	-0.0	-0.0	3.3244664669036865	15.249184608459473	-312.68927001953125	-4.0086164474487305	-18.097665786743164	-309.6320495605469	-0.0	-0.0	-0.0	-0.0	-0.0	-0.0	109759.3203125	7530.267578125	-4260.5283203125
0.012	-0.0	-0.0	-0.0	3.8596158027648926	15.264841079711914	-313.5926818847656	-4.740714550018311	-17.760900497436523	-308.08203125	-0.0	-0.0	-0.0	-0.0	-0.0	-0.0	109547.6875	7574.73046875	-4365.728515625
0.0125	-0.0	-0.0	-0.0	3.797053337097168	15.346014976501465	-314.00787353515625	-4.893794059753418	-17.912927627563477	-308.6824035644531	-0.0	-0.0	-0.0	-0.0	-0.0	-0.0	109304.609375	7661.0498046875	-4309.31591796875
0.013000000000000001	-0.0	-0.0	-0.0	3.5606935024261475	15.353589057922363	-314.2383728027344	-4.798533439636231	-18.001394271850586	-308.3009033203125	-0.0	-0.0	-0.0	-0.0	-0.0	-0.0	109164.84375	7624.08251953125	-4562.619140625
0.0135	-0.0	-0.0	-0.0	3.591486930847168	15.218253135681152	-313.946533203125	-4.975916862487793	-17.832902908325195	-307.8240051269531	-0.0	-0.0	-0.0	-0.0	-0.0	-0.0	109407.125	7830.80712890625	-4481.91259765625
0.014	-0.0	-0.0	-0.0	4.042731761932373	15.50107765197754	-314.9460144042969	-4.6290483474731445	-18.065902709960938	-306.6184387207031	-0.0	-0.0	-0.0	-0.0	-0.0	-0.0	108902.9921875	7854.9560546875	-4479.08154296875
0.0145	-0.0	-0.0	-0.0	3.5171003341674805	15.396845817565918	-315.38970947265625	-5.00849723815918	-18.017623901367188	-306.2059936523437	-0.0	-0.0	-0.0	-0.0	-0.0	-0.0	109050.359375	7786.166015625	-4452.39208984375
0.015	-0.0	-0.0	-0.0	3.5168204307556152	15.019000053405762	-312.9769897460937	-4.2660651206970215	-17.623489379882812	-306.1747131347656	-0.0	-0.0	-0.0	-0.0	-0.0	-0.0	108668.171875	7843.5830078125	-4484.12255859375
0.0155	-0.0	-0.0	-0.0	3.6874279975891113	15.085365295410156	-314.359619140625	-4.766757965087891	-18.066743850708008	-305.0965270996094	-0.0	-0.0	-0.0	-0.0	-0.0	-0.0	108661.0703125	8011.033203125	-4403.5234375
0.016	-0.0	-0.0	-0.0	3.672451734542847	15.932130813598633	-315.6244201660156	-4.401681423187256	-17.791667938232422	-304.6860046386719	-0.0	-0.0	-0.0	-0.0	-0.0	-0.0	108495.8671875	7803.5908203125	-4511.3427734375
0.0165	-0.0	-0.0	-0.0	3.404710292816162	15.843164443969728	-316.06695556640625	-4.56315803527832	-17.84872817993164	-305.8262023925781	-0.0	-0.0	-0.0	-0.0	-0.0	-0.0	108301.65625	7848.02099609375	-4316.87060546875
0.017	-0.0	-0.0	-0.0	3.508340358734131	15.479585647583008	-315.53387451171875	-4.1771159172058105	-17.75265884399414	-303.0635986328125	-0.0	-0.0	-0.0	-0.0	-0.0	-0.0	108337.296875	7762.4794921875	-4451.93017578125
0.0175	-0.0	-0.0	-0.0	3.6214077472686768	15.523165702819824	-316.3255310058594	-4.420196533203125	-18.06011962890625	-303.0635986328125	-0.0	-0.0	-0.0	-0.0	-0.0	-0.0	108474.9375	7695.87158203125	-4387.74755859375
0.018000000000000002	-0.0	-0.0	-0.0	3.5899441242218018	15.262803077697754	-317.7483215332031	-4.643368244171143	-17.906597137451172	-301.9063415527344	-0.0	-0.0	-0.0	-0.0	-0.0	-0.0	108175.296875	7673.17578125	-4447.28857421875
0.0185	-0.0	-0.0	-0.0	3.561286449432373	15.19493293762207	-319.3876342773437	-4.686549186706543	-17.656808853149414	-303.26397705078125	-0.0	-0.0	-0.0	-0.0	-0.0	-0.0	108568.1796875	7661.216796875	-4370.96044921875
0.019	-0.0	-0.0	-0.0	3.479209899902344	15.187530517578123	-318.6243591308594	-4.7678632736206055	-17.72276496887207	-303.4423217773437	-0.0	-0.0	-0.0	-0.0	-0.0	-0.0	108077.578125	7521.69873046875	-4341.35205078125
0.0195	-0.0	-0.0	-0.0	3.8360519409179688	15.844212532043455	-319.00469970703125	-5.145225524902344	-17.237531661987305	-304.9829406738281	-0.0	-0.0	-0.0	-0.0	-0.0	-0.0	108095.71875	7544.486328125	-4457.6435546875
0.02	-0.0	-0.0	-0.0	3.822117328643799	15.700872421264648	-320.4445495605469	-5.056514739990234	-17.340503692626953	-303.70367431640625	-0.0	-0.0	-0.0	-0.0	-0.0	-0.0	107924.59375	7767.1318359375	-4403.224609375
0.0205	-0.0	-0.0	-0.0	3.3284387588500977	15.536314964294434	-320.6873779296875	-4.634984016418457	-17.480384826660156	-303.35498046875	-0.0	-0.0	-0.0	-0.0	-0.0	-0.0	108130.125	7460.57421875	-4534.060546875
0.021	-0.0	-0.0	-0.0	3.348961591720581	15.638821601867676	-321.39373779296875	-4.967803955078125	-17.775850296020508	-302.5428161621094	-0.0	-0.0	-0.0	-0.0	-0.0	-0.0	107832.03125	7723.1025390625	-4489.7490234375
0.021500000000000002	-0.0	-0.0	-0.0	3.129168748855591	16.112218856811523	-321.693115234375	-4.826532363891602	-17.406570434570312	-301.9592590332031	-0.0	-0.0	-0.0	-0.0	-0.0	-0.0	107707.421875	7760.44091796875	-4511.95263671875
0.022	-0.0	-0.0	-0.0	3.389999389648437	15.528860092163086	-322.1267395019531	-4.996439933776856	-17.55463218688965	-303.0635986328125	-0.0	-0.0	-0.0	-0.0	-0.0	-0.0	107787.953125	7635.16845703125	-4521.734375
0.0225	-0.0	-0.0	-0.0	3.713476419448853	15.934340476989746	-321.1462707519531	-4.715877532958984	-16.993122100830078	-301.6949462890625	-0.0	-0.0	-0.0	-0.0	-0.0	-0.0	107386.390625	7776.1416015625	-4489.3154296875
0.023	-0.0	-0.0	-0.0	3.396634340286255	16.10608673095703	-321.6944274902344	-5.294386386871338	-17.215694427490234	-299.3341979980469	-0.0	-0.0	-0.0	-0.0	-0.0	-0.0	107264.9296875	7636.5244140625	-4517.072265625
0.0235	-0.0	-0.0	-0.0	3.161741018295288	15.700063705444336	-323.28955078125	-5.131239891052246	-17.20184326171875	-300.2703857421875	-0.0	-0.0	-0.0	-0.0	-0.0	-0.0	107011.0546875	7422.265625	-4512.27587890625
0.024	-0.0	-0.0	-0.0	3.2877402305603027	15.947823524475098	-323.5903015136719	-5.240891456604004	-17.222728729248047	-299.57208251953125	-0.0	-0.0	-0.0	-0.0	-0.0	-0.0	107011.6015625	7581.3701171875	-4407.68310546875
0.0245	-0.0	-0.0	-0.0	3.7468414306640634	16.615541458129883	-323.5128173828125	-5.2270188331604	-17.31793785095215	-300.56512451171875	-0.0	-0.0	-0.0	-0.0	-0.0	-0.0	107057.734375	7645.09765625	-4480.447265625
0.025	-0.0	-0.0	-0.0	3.3007888793945312	15.540728569030762	-324.5977783203125	-5.042825222015381	-17.14122200012207	-299.86737060546875	-0.0	-0.0	-0.0	-0.0	-0.0	-0.0	106681.984375	7646.08154296875	-4503.1416015625
